<?xml version="1.0" encoding="UTF-8" standalone="no"?>
<!DOCTYPE svg PUBLIC "-//W3C//DTD SVG 1.1//EN" "http://www.w3.org/Graphics/SVG/1.1/DTD/svg11.dtd">
<svg width="100%" height="100%" viewBox="0 0 3300 2550" version="1.1" xmlns="http://www.w3.org/2000/svg" xmlns:xlink="http://www.w3.org/1999/xlink" xml:space="preserve" xmlns:serif="http://www.serif.com/" style="fill-rule:evenodd;clip-rule:evenodd;stroke-linecap:round;stroke-linejoin:round;stroke-miterlimit:1.5;">
    <g transform="matrix(18.5615,0,0,18.5615,-19288.5,-11930.5)">
        <g transform="matrix(0.578995,0,0,0.733269,911.059,415.908)">
            <path d="M311.323,389.896C310.472,386.59 310.025,383.17 310.025,379.667C310.025,351.442 339.047,328.526 374.793,328.526C410.539,328.526 439.56,351.442 439.56,379.667C439.56,383.17 439.113,386.59 438.262,389.896C432.254,366.564 406.103,348.983 374.793,348.983C343.482,348.983 317.331,366.564 311.323,389.896Z" style="fill:rgb(5,218,222);"/>
        </g>
        <g transform="matrix(1,0,0,1,555.562,188.477)">
            <path d="M564.016,518.056L581.475,518.023L581.158,530.078C581.053,538.701 583.765,543.407 585.004,548.818C586.242,554.229 586.798,553.543 586.798,553.543L602.985,562.265L604.495,564.485L586.294,560.913L592.589,569.309L588.718,572.173L575.948,562.958L574.546,572.447L571.476,573.568L568.538,571.994L567.031,562.803L553.682,572.525C553.682,572.525 551.047,570.768 550.836,570.849C550.625,570.931 559.433,560.195 559.433,560.195L540.505,564.768L542.327,562.456L558.515,553.734C558.515,553.734 559.07,554.421 560.309,549.009C561.547,543.598 564.26,538.892 564.155,530.269L564.016,518.056" style="fill:rgb(5,218,222);stroke:rgb(191,109,64);stroke-width:0.05px;"/>
        </g>
        <g transform="matrix(1.67617,0,0,2.08683,-220.163,-290.642)">
            <path d="M786.035,468.437C781.347,469.372 778.635,470.642 778.635,471.984C778.635,474.772 790.156,477.036 804.348,477.036C818.54,477.036 830.061,474.772 830.061,471.984C830.061,470.667 827.452,469.42 822.928,468.491L821.23,466.762L825.028,465.587C836.169,466.977 842.918,469.391 842.918,471.984C842.918,476.167 825.635,479.563 804.348,479.563C783.061,479.563 765.778,476.167 765.778,471.984C765.778,469.391 772.527,466.977 783.668,465.587L787.458,466.759C787.458,466.759 787.386,468.168 786.035,468.437Z" style="fill:rgb(5,218,222);"/>
        </g>
    </g>
</svg>
